<svg width="27" height="24" viewBox="0 0 27 24" fill="none" xmlns="http://www.w3.org/2000/svg">
<path d="M26.6614 7.85333L25.2614 2.02667C24.9681 0.826667 23.9281 0 22.7148 0H4.19476C2.99476 0 1.94143 0.84 1.66143 2.02667L0.261427 7.85333C-0.0585731 9.21333 0.23476 10.6 1.08809 11.6933C1.19476 11.84 1.34143 11.9467 1.46143 12.08V21.3333C1.46143 22.8 2.66143 24 4.12809 24H22.7948C24.2614 24 25.4614 22.8 25.4614 21.3333V12.08C25.5814 11.96 25.7281 11.84 25.8348 11.7067C26.6881 10.6133 26.9948 9.21333 26.6614 7.85333ZM22.6748 2.65333L24.0748 8.48C24.2081 9.04 24.0881 9.6 23.7414 10.04C23.5548 10.28 23.1548 10.6667 22.4881 10.6667C21.6748 10.6667 20.9681 10.0133 20.8748 9.14667L20.1014 2.66667L22.6748 2.65333ZM14.7948 2.66667H17.4081L18.1281 8.69333C18.1948 9.21333 18.0348 9.73333 17.6881 10.12C17.3948 10.4667 16.9681 10.6667 16.4214 10.6667C15.5281 10.6667 14.7948 9.88 14.7948 8.92V2.66667ZM8.78143 8.69333L9.51476 2.66667H12.1281V8.92C12.1281 9.88 11.3948 10.6667 10.4081 10.6667C9.95476 10.6667 9.54143 10.4667 9.22143 10.12C8.88809 9.73333 8.72809 9.21333 8.78143 8.69333ZM2.84809 8.48L4.19476 2.66667H6.82143L6.04809 9.14667C5.94143 10.0133 5.24809 10.6667 4.43476 10.6667C3.78143 10.6667 3.36809 10.28 3.19476 10.04C2.83476 9.61333 2.71476 9.04 2.84809 8.48ZM4.12809 21.3333V13.2933C4.23476 13.3067 4.32809 13.3333 4.43476 13.3333C5.59476 13.3333 6.64809 12.8533 7.42143 12.0667C8.22143 12.8667 9.28809 13.3333 10.5014 13.3333C11.6614 13.3333 12.7014 12.8533 13.4748 12.0933C14.2614 12.8533 15.3281 13.3333 16.5281 13.3333C17.6481 13.3333 18.7148 12.8667 19.5148 12.0667C20.2881 12.8533 21.3414 13.3333 22.5014 13.3333C22.6081 13.3333 22.7014 13.3067 22.8081 13.2933V21.3333H4.12809Z" fill="#32323B"/>
</svg>
